<mxfile host="app.diagrams.net" modified="2023-11-14T02:23:27.402Z" agent="Mozilla/5.0 (Windows NT 10.0; Win64; x64) AppleWebKit/537.36 (KHTML, like Gecko) Chrome/90.0.4430.93 Safari/537.36" etag="dyyvgrlaHVrzv7UMKt6T" version="22.1.0" type="github">
  <diagram id="YuTrPqNjII004uJJefmk" name="第 1 页">
    <mxGraphModel dx="2185" dy="519" grid="1" gridSize="10" guides="1" tooltips="1" connect="1" arrows="1" fold="1" page="1" pageScale="1" pageWidth="827" pageHeight="1169" math="0" shadow="0">
      <root>
        <mxCell id="0" />
        <mxCell id="1" parent="0" />
        <mxCell id="y5NXFztRQY8MZ4zbG8XM-1" value="Boundary Object" style="shape=umlBoundary;whiteSpace=wrap;html=1;" parent="1" vertex="1">
          <mxGeometry x="70" y="40" width="100" height="80" as="geometry" />
        </mxCell>
        <mxCell id="y5NXFztRQY8MZ4zbG8XM-2" value="Entity Object" style="ellipse;shape=umlEntity;whiteSpace=wrap;html=1;" parent="1" vertex="1">
          <mxGeometry x="630" y="30" width="80" height="80" as="geometry" />
        </mxCell>
        <mxCell id="y5NXFztRQY8MZ4zbG8XM-3" value="Control Object" style="ellipse;shape=umlControl;whiteSpace=wrap;html=1;" parent="1" vertex="1">
          <mxGeometry x="355" y="30" width="70" height="80" as="geometry" />
        </mxCell>
        <mxCell id="y5NXFztRQY8MZ4zbG8XM-9" value="SqlConn(数据库连接)" style="rounded=1;whiteSpace=wrap;html=1;" parent="1" vertex="1">
          <mxGeometry x="340" y="320" width="120" height="60" as="geometry" />
        </mxCell>
        <mxCell id="y5NXFztRQY8MZ4zbG8XM-10" value="User(用户)" style="rounded=1;whiteSpace=wrap;html=1;" parent="1" vertex="1">
          <mxGeometry x="610" y="140" width="120" height="60" as="geometry" />
        </mxCell>
        <mxCell id="y5NXFztRQY8MZ4zbG8XM-12" value="BasicOp(功能)" style="rounded=1;whiteSpace=wrap;html=1;" parent="1" vertex="1">
          <mxGeometry x="340" y="130" width="120" height="60" as="geometry" />
        </mxCell>
        <mxCell id="y5NXFztRQY8MZ4zbG8XM-19" value="MainMenu(主菜单)" style="rounded=1;whiteSpace=wrap;html=1;" parent="1" vertex="1">
          <mxGeometry x="110" y="140" width="120" height="60" as="geometry" />
        </mxCell>
        <mxCell id="vE1YziHjRtV2wetq-Okw-1" value="LogMenu(登陆)" style="rounded=1;whiteSpace=wrap;html=1;" parent="1" vertex="1">
          <mxGeometry x="-120" y="140" width="120" height="60" as="geometry" />
        </mxCell>
        <mxCell id="jLl913GP6wppFuOO8VZM-3" value="student" style="rounded=0;whiteSpace=wrap;html=1;" parent="1" vertex="1">
          <mxGeometry x="-50" y="555" width="120" height="60" as="geometry" />
        </mxCell>
        <mxCell id="jLl913GP6wppFuOO8VZM-4" value="" style="endArrow=classic;html=1;rounded=0;exitX=0.157;exitY=1.03;exitDx=0;exitDy=0;exitPerimeter=0;" parent="1" source="jLl913GP6wppFuOO8VZM-3" target="jLl913GP6wppFuOO8VZM-10" edge="1">
          <mxGeometry width="50" height="50" relative="1" as="geometry">
            <mxPoint x="-140" y="710" as="sourcePoint" />
            <mxPoint x="-150" y="680" as="targetPoint" />
          </mxGeometry>
        </mxCell>
        <mxCell id="jLl913GP6wppFuOO8VZM-5" value="" style="endArrow=classic;html=1;rounded=0;exitX=0.5;exitY=1;exitDx=0;exitDy=0;" parent="1" source="jLl913GP6wppFuOO8VZM-3" target="jLl913GP6wppFuOO8VZM-9" edge="1">
          <mxGeometry width="50" height="50" relative="1" as="geometry">
            <mxPoint x="-10" y="690" as="sourcePoint" />
            <mxPoint x="-20" y="680" as="targetPoint" />
          </mxGeometry>
        </mxCell>
        <mxCell id="jLl913GP6wppFuOO8VZM-7" value="" style="endArrow=classic;html=1;rounded=0;exitX=0.863;exitY=1.043;exitDx=0;exitDy=0;exitPerimeter=0;" parent="1" source="jLl913GP6wppFuOO8VZM-3" target="jLl913GP6wppFuOO8VZM-8" edge="1">
          <mxGeometry width="50" height="50" relative="1" as="geometry">
            <mxPoint x="70" y="740" as="sourcePoint" />
            <mxPoint x="120" y="690" as="targetPoint" />
          </mxGeometry>
        </mxCell>
        <mxCell id="jLl913GP6wppFuOO8VZM-8" value="age" style="rounded=1;whiteSpace=wrap;html=1;" parent="1" vertex="1">
          <mxGeometry x="40" y="680" width="120" height="60" as="geometry" />
        </mxCell>
        <mxCell id="jLl913GP6wppFuOO8VZM-9" value="name" style="rounded=1;whiteSpace=wrap;html=1;" parent="1" vertex="1">
          <mxGeometry x="-100" y="680" width="120" height="60" as="geometry" />
        </mxCell>
        <mxCell id="jLl913GP6wppFuOO8VZM-10" value="&lt;u&gt;number&lt;/u&gt;" style="rounded=1;whiteSpace=wrap;html=1;" parent="1" vertex="1">
          <mxGeometry x="-250" y="680" width="120" height="60" as="geometry" />
        </mxCell>
        <mxCell id="jLl913GP6wppFuOO8VZM-11" value="gender" style="rounded=1;whiteSpace=wrap;html=1;" parent="1" vertex="1">
          <mxGeometry x="200" y="680" width="110" height="70" as="geometry" />
        </mxCell>
        <mxCell id="jLl913GP6wppFuOO8VZM-12" value="" style="endArrow=classic;html=1;rounded=0;exitX=1;exitY=0.5;exitDx=0;exitDy=0;entryX=0.438;entryY=0.003;entryDx=0;entryDy=0;entryPerimeter=0;" parent="1" source="jLl913GP6wppFuOO8VZM-3" target="jLl913GP6wppFuOO8VZM-11" edge="1">
          <mxGeometry width="50" height="50" relative="1" as="geometry">
            <mxPoint x="70" y="740" as="sourcePoint" />
            <mxPoint x="120" y="690" as="targetPoint" />
          </mxGeometry>
        </mxCell>
        <mxCell id="jLl913GP6wppFuOO8VZM-22" style="edgeStyle=orthogonalEdgeStyle;rounded=0;orthogonalLoop=1;jettySize=auto;html=1;exitX=0.25;exitY=1;exitDx=0;exitDy=0;entryX=0.329;entryY=1.003;entryDx=0;entryDy=0;entryPerimeter=0;" parent="1" source="jLl913GP6wppFuOO8VZM-11" target="jLl913GP6wppFuOO8VZM-11" edge="1">
          <mxGeometry relative="1" as="geometry" />
        </mxCell>
        <mxCell id="6zZ8F-2lzGHzZQmj2EZR-1" value="CashMenu(取钱)" style="rounded=1;whiteSpace=wrap;html=1;" parent="1" vertex="1">
          <mxGeometry x="30" y="320" width="120" height="60" as="geometry" />
        </mxCell>
        <mxCell id="6zZ8F-2lzGHzZQmj2EZR-2" value="DepositMenu(存钱)" style="rounded=1;whiteSpace=wrap;html=1;" parent="1" vertex="1">
          <mxGeometry x="180" y="320" width="120" height="60" as="geometry" />
        </mxCell>
        <mxCell id="6zZ8F-2lzGHzZQmj2EZR-4" value="count" style="rounded=1;whiteSpace=wrap;html=1;" parent="1" vertex="1">
          <mxGeometry x="405" y="685" width="120" height="60" as="geometry" />
        </mxCell>
        <mxCell id="6zZ8F-2lzGHzZQmj2EZR-5" value="user" style="rounded=0;whiteSpace=wrap;html=1;" parent="1" vertex="1">
          <mxGeometry x="570" y="560" width="120" height="60" as="geometry" />
        </mxCell>
        <mxCell id="6zZ8F-2lzGHzZQmj2EZR-6" value="password" style="rounded=1;whiteSpace=wrap;html=1;" parent="1" vertex="1">
          <mxGeometry x="660" y="690" width="120" height="60" as="geometry" />
        </mxCell>
        <mxCell id="6zZ8F-2lzGHzZQmj2EZR-7" value="" style="endArrow=classic;html=1;rounded=0;exitX=0.172;exitY=1.044;exitDx=0;exitDy=0;exitPerimeter=0;entryX=0.644;entryY=0.043;entryDx=0;entryDy=0;entryPerimeter=0;" parent="1" source="6zZ8F-2lzGHzZQmj2EZR-5" target="6zZ8F-2lzGHzZQmj2EZR-4" edge="1">
          <mxGeometry width="50" height="50" relative="1" as="geometry">
            <mxPoint x="450" y="670" as="sourcePoint" />
            <mxPoint x="500" y="620" as="targetPoint" />
          </mxGeometry>
        </mxCell>
        <mxCell id="6zZ8F-2lzGHzZQmj2EZR-8" value="" style="endArrow=classic;html=1;rounded=0;exitX=0.631;exitY=1.03;exitDx=0;exitDy=0;exitPerimeter=0;entryX=0.422;entryY=-0.011;entryDx=0;entryDy=0;entryPerimeter=0;" parent="1" source="6zZ8F-2lzGHzZQmj2EZR-5" target="6zZ8F-2lzGHzZQmj2EZR-6" edge="1">
          <mxGeometry width="50" height="50" relative="1" as="geometry">
            <mxPoint x="670" y="680" as="sourcePoint" />
            <mxPoint x="720" y="630" as="targetPoint" />
          </mxGeometry>
        </mxCell>
        <mxCell id="2AOM14qlMFtI9OarPy-1-1" value="TransferMenu(转钱)" style="rounded=1;whiteSpace=wrap;html=1;" vertex="1" parent="1">
          <mxGeometry x="-120" y="320" width="120" height="60" as="geometry" />
        </mxCell>
        <mxCell id="2AOM14qlMFtI9OarPy-1-17" value="" style="endArrow=classic;html=1;rounded=0;exitX=0.5;exitY=0;exitDx=0;exitDy=0;entryX=0.332;entryY=1.076;entryDx=0;entryDy=0;entryPerimeter=0;" edge="1" parent="1" source="2AOM14qlMFtI9OarPy-1-1" target="y5NXFztRQY8MZ4zbG8XM-19">
          <mxGeometry width="50" height="50" relative="1" as="geometry">
            <mxPoint x="400" y="280" as="sourcePoint" />
            <mxPoint x="450" y="230" as="targetPoint" />
          </mxGeometry>
        </mxCell>
        <mxCell id="2AOM14qlMFtI9OarPy-1-18" value="" style="endArrow=classic;html=1;rounded=0;exitX=0.592;exitY=-0.034;exitDx=0;exitDy=0;exitPerimeter=0;entryX=0.361;entryY=1.03;entryDx=0;entryDy=0;entryPerimeter=0;" edge="1" parent="1" source="6zZ8F-2lzGHzZQmj2EZR-1" target="y5NXFztRQY8MZ4zbG8XM-19">
          <mxGeometry width="50" height="50" relative="1" as="geometry">
            <mxPoint x="400" y="280" as="sourcePoint" />
            <mxPoint x="450" y="230" as="targetPoint" />
          </mxGeometry>
        </mxCell>
        <mxCell id="2AOM14qlMFtI9OarPy-1-19" value="" style="endArrow=classic;html=1;rounded=0;exitX=0.577;exitY=0.001;exitDx=0;exitDy=0;exitPerimeter=0;entryX=0.366;entryY=1.03;entryDx=0;entryDy=0;entryPerimeter=0;" edge="1" parent="1" source="6zZ8F-2lzGHzZQmj2EZR-2" target="y5NXFztRQY8MZ4zbG8XM-19">
          <mxGeometry width="50" height="50" relative="1" as="geometry">
            <mxPoint x="400" y="280" as="sourcePoint" />
            <mxPoint x="450" y="230" as="targetPoint" />
          </mxGeometry>
        </mxCell>
        <mxCell id="2AOM14qlMFtI9OarPy-1-20" value="" style="endArrow=classic;html=1;rounded=0;exitX=1.008;exitY=0.624;exitDx=0;exitDy=0;exitPerimeter=0;entryX=0;entryY=0.5;entryDx=0;entryDy=0;" edge="1" parent="1" source="vE1YziHjRtV2wetq-Okw-1" target="y5NXFztRQY8MZ4zbG8XM-19">
          <mxGeometry width="50" height="50" relative="1" as="geometry">
            <mxPoint x="400" y="280" as="sourcePoint" />
            <mxPoint x="450" y="230" as="targetPoint" />
          </mxGeometry>
        </mxCell>
        <mxCell id="2AOM14qlMFtI9OarPy-1-21" value="" style="endArrow=classic;html=1;rounded=0;exitX=0.5;exitY=0;exitDx=0;exitDy=0;entryX=0.5;entryY=1;entryDx=0;entryDy=0;" edge="1" parent="1" source="y5NXFztRQY8MZ4zbG8XM-9" target="y5NXFztRQY8MZ4zbG8XM-12">
          <mxGeometry width="50" height="50" relative="1" as="geometry">
            <mxPoint x="400" y="280" as="sourcePoint" />
            <mxPoint x="450" y="230" as="targetPoint" />
          </mxGeometry>
        </mxCell>
        <mxCell id="2AOM14qlMFtI9OarPy-1-22" value="" style="endArrow=classic;html=1;rounded=0;entryX=1.024;entryY=0.617;entryDx=0;entryDy=0;entryPerimeter=0;exitX=0;exitY=0.5;exitDx=0;exitDy=0;" edge="1" parent="1" source="y5NXFztRQY8MZ4zbG8XM-10" target="y5NXFztRQY8MZ4zbG8XM-12">
          <mxGeometry width="50" height="50" relative="1" as="geometry">
            <mxPoint x="510" y="230" as="sourcePoint" />
            <mxPoint x="560" y="180" as="targetPoint" />
          </mxGeometry>
        </mxCell>
      </root>
    </mxGraphModel>
  </diagram>
</mxfile>
